<mxfile host="app.diagrams.net" agent="Mozilla/5.0 (Windows NT 10.0; Win64; x64; rv:133.0) Gecko/20100101 Firefox/133.0" version="25.0.3">
  <diagram name="Page-1" id="DrpccX8yCWr1qNjOXeAT">
    <mxGraphModel dx="1400" dy="1876" grid="1" gridSize="10" guides="1" tooltips="1" connect="1" arrows="1" fold="1" page="1" pageScale="1" pageWidth="827" pageHeight="1169" math="0" shadow="0">
      <root>
        <mxCell id="0" />
        <mxCell id="1" parent="0" />
        <mxCell id="suShTrsIFutGuFCYmA1w-5" style="edgeStyle=orthogonalEdgeStyle;rounded=0;orthogonalLoop=1;jettySize=auto;html=1;" edge="1" parent="1" source="suShTrsIFutGuFCYmA1w-1" target="suShTrsIFutGuFCYmA1w-4">
          <mxGeometry relative="1" as="geometry" />
        </mxCell>
        <mxCell id="suShTrsIFutGuFCYmA1w-1" value="" style="ellipse;whiteSpace=wrap;html=1;aspect=fixed;fillColor=#000000;" vertex="1" parent="1">
          <mxGeometry x="40" y="-70" width="40" height="40" as="geometry" />
        </mxCell>
        <mxCell id="suShTrsIFutGuFCYmA1w-2" value="" style="ellipse;whiteSpace=wrap;html=1;aspect=fixed;fillColor=#000000;" vertex="1" parent="1">
          <mxGeometry x="1113" y="230" width="40" height="40" as="geometry" />
        </mxCell>
        <mxCell id="suShTrsIFutGuFCYmA1w-3" value="" style="ellipse;whiteSpace=wrap;html=1;aspect=fixed;strokeOpacity=50;fillOpacity=0;" vertex="1" parent="1">
          <mxGeometry x="1103" y="220" width="60" height="60" as="geometry" />
        </mxCell>
        <mxCell id="suShTrsIFutGuFCYmA1w-45" style="edgeStyle=orthogonalEdgeStyle;rounded=0;orthogonalLoop=1;jettySize=auto;html=1;" edge="1" parent="1" source="suShTrsIFutGuFCYmA1w-4" target="suShTrsIFutGuFCYmA1w-23">
          <mxGeometry relative="1" as="geometry" />
        </mxCell>
        <mxCell id="suShTrsIFutGuFCYmA1w-4" value="Lancer le jeu" style="whiteSpace=wrap;html=1;aspect=fixed;" vertex="1" parent="1">
          <mxGeometry x="150" y="-90" width="80" height="80" as="geometry" />
        </mxCell>
        <mxCell id="suShTrsIFutGuFCYmA1w-21" style="edgeStyle=orthogonalEdgeStyle;rounded=0;orthogonalLoop=1;jettySize=auto;html=1;" edge="1" parent="1" source="suShTrsIFutGuFCYmA1w-7" target="suShTrsIFutGuFCYmA1w-19">
          <mxGeometry relative="1" as="geometry" />
        </mxCell>
        <mxCell id="suShTrsIFutGuFCYmA1w-7" value="Paramétrer la partie ?" style="strokeWidth=2;html=1;shape=mxgraph.flowchart.decision;whiteSpace=wrap;" vertex="1" parent="1">
          <mxGeometry x="140" y="360" width="100" height="100" as="geometry" />
        </mxCell>
        <mxCell id="suShTrsIFutGuFCYmA1w-36" style="edgeStyle=orthogonalEdgeStyle;rounded=0;orthogonalLoop=1;jettySize=auto;html=1;" edge="1" parent="1" source="suShTrsIFutGuFCYmA1w-8" target="suShTrsIFutGuFCYmA1w-33">
          <mxGeometry relative="1" as="geometry" />
        </mxCell>
        <mxCell id="suShTrsIFutGuFCYmA1w-37" value="&lt;div&gt;NON&lt;/div&gt;&lt;div&gt;&lt;br&gt;&lt;/div&gt;" style="edgeLabel;html=1;align=center;verticalAlign=middle;resizable=0;points=[];" vertex="1" connectable="0" parent="suShTrsIFutGuFCYmA1w-36">
          <mxGeometry x="-0.55" y="2" relative="1" as="geometry">
            <mxPoint y="-18" as="offset" />
          </mxGeometry>
        </mxCell>
        <mxCell id="suShTrsIFutGuFCYmA1w-8" value="&lt;div&gt;Créer une partie&lt;/div&gt;&lt;div&gt;&amp;nbsp;?&lt;/div&gt;&lt;div&gt;&lt;br&gt;&lt;/div&gt;" style="strokeWidth=2;html=1;shape=mxgraph.flowchart.decision;whiteSpace=wrap;" vertex="1" parent="1">
          <mxGeometry x="140" y="200" width="100" height="100" as="geometry" />
        </mxCell>
        <mxCell id="suShTrsIFutGuFCYmA1w-15" style="edgeStyle=orthogonalEdgeStyle;rounded=0;orthogonalLoop=1;jettySize=auto;html=1;" edge="1" parent="1" source="suShTrsIFutGuFCYmA1w-9" target="suShTrsIFutGuFCYmA1w-11">
          <mxGeometry relative="1" as="geometry" />
        </mxCell>
        <mxCell id="suShTrsIFutGuFCYmA1w-16" value="NON" style="edgeLabel;html=1;align=center;verticalAlign=middle;resizable=0;points=[];" vertex="1" connectable="0" parent="suShTrsIFutGuFCYmA1w-15">
          <mxGeometry x="-0.2" y="-3" relative="1" as="geometry">
            <mxPoint x="-30" y="-33" as="offset" />
          </mxGeometry>
        </mxCell>
        <mxCell id="suShTrsIFutGuFCYmA1w-40" style="edgeStyle=orthogonalEdgeStyle;rounded=0;orthogonalLoop=1;jettySize=auto;html=1;entryX=0.5;entryY=1;entryDx=0;entryDy=0;" edge="1" parent="1" source="suShTrsIFutGuFCYmA1w-9" target="suShTrsIFutGuFCYmA1w-3">
          <mxGeometry relative="1" as="geometry">
            <Array as="points">
              <mxPoint x="490" y="400" />
              <mxPoint x="1133" y="400" />
            </Array>
          </mxGeometry>
        </mxCell>
        <mxCell id="suShTrsIFutGuFCYmA1w-41" value="&lt;div&gt;OUI&lt;/div&gt;&lt;div&gt;&lt;br&gt;&lt;/div&gt;" style="edgeLabel;html=1;align=center;verticalAlign=middle;resizable=0;points=[];" vertex="1" connectable="0" parent="suShTrsIFutGuFCYmA1w-40">
          <mxGeometry x="-0.9003" y="-4" relative="1" as="geometry">
            <mxPoint x="24" y="-33" as="offset" />
          </mxGeometry>
        </mxCell>
        <mxCell id="suShTrsIFutGuFCYmA1w-9" value="&lt;div&gt;Charger une partie ?&lt;/div&gt;" style="strokeWidth=2;html=1;shape=mxgraph.flowchart.decision;whiteSpace=wrap;" vertex="1" parent="1">
          <mxGeometry x="440" y="200" width="100" height="100" as="geometry" />
        </mxCell>
        <mxCell id="suShTrsIFutGuFCYmA1w-29" style="edgeStyle=orthogonalEdgeStyle;rounded=0;orthogonalLoop=1;jettySize=auto;html=1;" edge="1" parent="1" source="suShTrsIFutGuFCYmA1w-11" target="suShTrsIFutGuFCYmA1w-28">
          <mxGeometry relative="1" as="geometry" />
        </mxCell>
        <mxCell id="suShTrsIFutGuFCYmA1w-30" value="&lt;div&gt;NON&lt;/div&gt;&lt;div&gt;&lt;br&gt;&lt;/div&gt;" style="edgeLabel;html=1;align=center;verticalAlign=middle;resizable=0;points=[];" vertex="1" connectable="0" parent="suShTrsIFutGuFCYmA1w-29">
          <mxGeometry x="0.1" y="1" relative="1" as="geometry">
            <mxPoint x="-23" y="-29" as="offset" />
          </mxGeometry>
        </mxCell>
        <mxCell id="suShTrsIFutGuFCYmA1w-11" value="Supprimer une partie ?" style="strokeWidth=2;html=1;shape=mxgraph.flowchart.decision;whiteSpace=wrap;" vertex="1" parent="1">
          <mxGeometry x="640" y="200" width="100" height="100" as="geometry" />
        </mxCell>
        <mxCell id="suShTrsIFutGuFCYmA1w-17" style="edgeStyle=orthogonalEdgeStyle;rounded=0;orthogonalLoop=1;jettySize=auto;html=1;entryX=0.5;entryY=0;entryDx=0;entryDy=0;entryPerimeter=0;" edge="1" parent="1" source="suShTrsIFutGuFCYmA1w-8" target="suShTrsIFutGuFCYmA1w-7">
          <mxGeometry relative="1" as="geometry" />
        </mxCell>
        <mxCell id="suShTrsIFutGuFCYmA1w-18" value="&lt;div&gt;OUI&lt;/div&gt;&lt;div&gt;&lt;br&gt;&lt;/div&gt;" style="edgeLabel;html=1;align=center;verticalAlign=middle;resizable=0;points=[];" vertex="1" connectable="0" parent="suShTrsIFutGuFCYmA1w-17">
          <mxGeometry x="-0.2333" y="-1" relative="1" as="geometry">
            <mxPoint x="21" y="-13" as="offset" />
          </mxGeometry>
        </mxCell>
        <mxCell id="suShTrsIFutGuFCYmA1w-22" style="edgeStyle=orthogonalEdgeStyle;rounded=0;orthogonalLoop=1;jettySize=auto;html=1;" edge="1" parent="1" source="suShTrsIFutGuFCYmA1w-19" target="suShTrsIFutGuFCYmA1w-20">
          <mxGeometry relative="1" as="geometry" />
        </mxCell>
        <mxCell id="suShTrsIFutGuFCYmA1w-19" value="Choisir la langue" style="whiteSpace=wrap;html=1;aspect=fixed;" vertex="1" parent="1">
          <mxGeometry x="150" y="500" width="80" height="80" as="geometry" />
        </mxCell>
        <mxCell id="suShTrsIFutGuFCYmA1w-35" style="edgeStyle=orthogonalEdgeStyle;rounded=0;orthogonalLoop=1;jettySize=auto;html=1;" edge="1" parent="1" source="suShTrsIFutGuFCYmA1w-20" target="suShTrsIFutGuFCYmA1w-33">
          <mxGeometry relative="1" as="geometry" />
        </mxCell>
        <mxCell id="suShTrsIFutGuFCYmA1w-20" value="Régler le son" style="whiteSpace=wrap;html=1;aspect=fixed;" vertex="1" parent="1">
          <mxGeometry x="290" y="500" width="80" height="80" as="geometry" />
        </mxCell>
        <mxCell id="suShTrsIFutGuFCYmA1w-23" value="" style="strokeWidth=2;html=1;shape=mxgraph.flowchart.decision;whiteSpace=wrap;" vertex="1" parent="1">
          <mxGeometry x="140" y="50" width="100" height="100" as="geometry" />
        </mxCell>
        <mxCell id="suShTrsIFutGuFCYmA1w-25" style="edgeStyle=orthogonalEdgeStyle;rounded=0;orthogonalLoop=1;jettySize=auto;html=1;" edge="1" parent="1" source="suShTrsIFutGuFCYmA1w-24" target="suShTrsIFutGuFCYmA1w-3">
          <mxGeometry relative="1" as="geometry" />
        </mxCell>
        <mxCell id="suShTrsIFutGuFCYmA1w-26" value="OUI" style="edgeLabel;html=1;align=center;verticalAlign=middle;resizable=0;points=[];" vertex="1" connectable="0" parent="suShTrsIFutGuFCYmA1w-25">
          <mxGeometry x="-0.3023" relative="1" as="geometry">
            <mxPoint x="-12" y="-20" as="offset" />
          </mxGeometry>
        </mxCell>
        <mxCell id="suShTrsIFutGuFCYmA1w-24" value="Quitter le jeu ?" style="strokeWidth=2;html=1;shape=mxgraph.flowchart.decision;whiteSpace=wrap;" vertex="1" parent="1">
          <mxGeometry x="960" y="200" width="100" height="100" as="geometry" />
        </mxCell>
        <mxCell id="suShTrsIFutGuFCYmA1w-28" value="" style="strokeWidth=2;html=1;shape=mxgraph.flowchart.decision;whiteSpace=wrap;" vertex="1" parent="1">
          <mxGeometry x="800" y="200" width="100" height="100" as="geometry" />
        </mxCell>
        <mxCell id="suShTrsIFutGuFCYmA1w-31" style="edgeStyle=orthogonalEdgeStyle;rounded=0;orthogonalLoop=1;jettySize=auto;html=1;entryX=0.5;entryY=1;entryDx=0;entryDy=0;entryPerimeter=0;" edge="1" parent="1" source="suShTrsIFutGuFCYmA1w-11" target="suShTrsIFutGuFCYmA1w-28">
          <mxGeometry relative="1" as="geometry">
            <Array as="points">
              <mxPoint x="690" y="320" />
              <mxPoint x="850" y="320" />
            </Array>
          </mxGeometry>
        </mxCell>
        <mxCell id="suShTrsIFutGuFCYmA1w-32" value="&lt;div&gt;OUI&lt;/div&gt;&lt;div&gt;&lt;br&gt;&lt;/div&gt;" style="edgeLabel;html=1;align=center;verticalAlign=middle;resizable=0;points=[];" vertex="1" connectable="0" parent="suShTrsIFutGuFCYmA1w-31">
          <mxGeometry x="-0.46" y="3" relative="1" as="geometry">
            <mxPoint x="-4" y="-17" as="offset" />
          </mxGeometry>
        </mxCell>
        <mxCell id="suShTrsIFutGuFCYmA1w-38" style="edgeStyle=orthogonalEdgeStyle;rounded=0;orthogonalLoop=1;jettySize=auto;html=1;" edge="1" parent="1" source="suShTrsIFutGuFCYmA1w-33" target="suShTrsIFutGuFCYmA1w-9">
          <mxGeometry relative="1" as="geometry" />
        </mxCell>
        <mxCell id="suShTrsIFutGuFCYmA1w-33" value="" style="strokeWidth=2;html=1;shape=mxgraph.flowchart.decision;whiteSpace=wrap;" vertex="1" parent="1">
          <mxGeometry x="280" y="200" width="100" height="100" as="geometry" />
        </mxCell>
        <mxCell id="suShTrsIFutGuFCYmA1w-42" style="edgeStyle=orthogonalEdgeStyle;rounded=0;orthogonalLoop=1;jettySize=auto;html=1;entryX=0.5;entryY=0;entryDx=0;entryDy=0;entryPerimeter=0;" edge="1" parent="1" source="suShTrsIFutGuFCYmA1w-7" target="suShTrsIFutGuFCYmA1w-33">
          <mxGeometry relative="1" as="geometry">
            <Array as="points">
              <mxPoint x="90" y="410" />
              <mxPoint x="90" y="180" />
              <mxPoint x="330" y="180" />
            </Array>
          </mxGeometry>
        </mxCell>
        <mxCell id="suShTrsIFutGuFCYmA1w-43" value="NON" style="edgeLabel;html=1;align=center;verticalAlign=middle;resizable=0;points=[];" vertex="1" connectable="0" parent="suShTrsIFutGuFCYmA1w-42">
          <mxGeometry x="-0.9185" y="-2" relative="1" as="geometry">
            <mxPoint x="12" y="-18" as="offset" />
          </mxGeometry>
        </mxCell>
        <mxCell id="suShTrsIFutGuFCYmA1w-44" style="edgeStyle=orthogonalEdgeStyle;rounded=0;orthogonalLoop=1;jettySize=auto;html=1;entryX=0;entryY=0.5;entryDx=0;entryDy=0;entryPerimeter=0;" edge="1" parent="1" source="suShTrsIFutGuFCYmA1w-28" target="suShTrsIFutGuFCYmA1w-24">
          <mxGeometry relative="1" as="geometry" />
        </mxCell>
        <mxCell id="suShTrsIFutGuFCYmA1w-46" style="edgeStyle=orthogonalEdgeStyle;rounded=0;orthogonalLoop=1;jettySize=auto;html=1;entryX=0.5;entryY=0;entryDx=0;entryDy=0;entryPerimeter=0;" edge="1" parent="1" source="suShTrsIFutGuFCYmA1w-23" target="suShTrsIFutGuFCYmA1w-8">
          <mxGeometry relative="1" as="geometry" />
        </mxCell>
        <mxCell id="suShTrsIFutGuFCYmA1w-48" style="edgeStyle=orthogonalEdgeStyle;rounded=0;orthogonalLoop=1;jettySize=auto;html=1;entryX=1;entryY=0.5;entryDx=0;entryDy=0;entryPerimeter=0;" edge="1" parent="1" source="suShTrsIFutGuFCYmA1w-24" target="suShTrsIFutGuFCYmA1w-23">
          <mxGeometry relative="1" as="geometry">
            <Array as="points">
              <mxPoint x="1010" y="100" />
            </Array>
          </mxGeometry>
        </mxCell>
        <mxCell id="suShTrsIFutGuFCYmA1w-49" value="NON" style="edgeLabel;html=1;align=center;verticalAlign=middle;resizable=0;points=[];" vertex="1" connectable="0" parent="suShTrsIFutGuFCYmA1w-48">
          <mxGeometry x="-0.9195" y="1" relative="1" as="geometry">
            <mxPoint x="21" y="15" as="offset" />
          </mxGeometry>
        </mxCell>
      </root>
    </mxGraphModel>
  </diagram>
</mxfile>
